<svg aria-hidden="true" style="position: absolute; width: 0; height: 0; overflow: hidden;" version="1.1" xmlns="http://www.w3.org/2000/svg" xmlns:xlink="http://www.w3.org/1999/xlink">
<defs>
<symbol id="icon-icon-menu" viewBox="0 0 32 32">
<path stroke-linejoin="round" stroke-linecap="round" stroke-miterlimit="4" stroke-width="2.5" d="M4 16h24M4 8h24M4 24h16"></path>
</symbol>
<symbol id="icon-icon-logo-light-mobile" viewBox="0 0 32 32">
<path fill="#ebf3d4" style="fill: var(--color1, #ebf3d4)" d="M6 0h20c3.314 0 6 2.686 6 6v20c0 3.314-2.686 6-6 6h-20c-3.314 0-6-2.686-6-6v-20c0-3.314 2.686-6 6-6z"></path>
<path fill="none" stroke="#8baa36" style="stroke: var(--color2, #8baa36)" stroke-linejoin="round" stroke-linecap="round" stroke-miterlimit="4" stroke-width="1.8" d="M7 7.084v4.462c0 1.274 0.556 2.402 1.418 3.132 0.421 0.357 0.7 0.839 0.7 1.374v7.448c0 0.828 0.712 1.5 1.588 1.5s1.588-0.672 1.588-1.5v-7.448c0-0.535 0.278-1.017 0.7-1.374 0.862-0.73 1.418-1.858 1.418-3.132v0"></path>
<path fill="none" stroke="#8baa36" style="stroke: var(--color2, #8baa36)" stroke-linejoin="round" stroke-linecap="round" stroke-miterlimit="4" stroke-width="1.8" d="M10.705 12v-5"></path>
<path fill="none" stroke="#8baa36" style="stroke: var(--color2, #8baa36)" stroke-linejoin="round" stroke-linecap="round" stroke-miterlimit="4" stroke-width="1.8" d="M24.999 8.052c0-0.552-0.474-1-1.059-1h-1.059c-1.754 0-3.176 1.343-3.176 3v6c0 1.304 0.886 2.403 2.118 2.816v4.632c0 0.828 0.712 1.5 1.588 1.5s1.588-0.672 1.588-1.5v-15.448z"></path>
</symbol>
<symbol id="icon-icon-logo-light" viewBox="0 0 32 32">
<path fill="#ebf3d4" style="fill: var(--color1, #ebf3d4)" d="M8.727 0h14.545c4.82 0 8.727 3.907 8.727 8.727v14.545c0 4.82-3.907 8.727-8.727 8.727h-14.545c-4.82 0-8.727-3.907-8.727-8.727v-14.545c0-4.82 3.907-8.727 8.727-8.727z"></path>
<path fill="none" stroke="#8baa36" style="stroke: var(--color2, #8baa36)" stroke-linejoin="round" stroke-linecap="round" stroke-miterlimit="4" stroke-width="1.4545" d="M7.273 7.347v3.966c0 1.132 0.494 2.135 1.26 2.784 0.375 0.317 0.622 0.746 0.622 1.221v6.62c0 0.736 0.633 1.333 1.412 1.333s1.412-0.597 1.412-1.333v-6.62c0-0.476 0.248-0.904 0.622-1.221 0.766-0.649 1.26-1.652 1.26-2.784v0"></path>
<path fill="none" stroke="#8baa36" style="stroke: var(--color2, #8baa36)" stroke-linejoin="round" stroke-linecap="round" stroke-miterlimit="4" stroke-width="1.4545" d="M10.567 11.717v-4.444"></path>
<path fill="none" stroke="#8baa36" style="stroke: var(--color2, #8baa36)" stroke-linejoin="round" stroke-linecap="round" stroke-miterlimit="4" stroke-width="1.4545" d="M23.273 8.207c0-0.491-0.422-0.889-0.941-0.889h-0.941c-1.559 0-2.823 1.194-2.823 2.667v5.333c0 1.159 0.788 2.136 1.882 2.503v4.117c0 0.736 0.633 1.333 1.412 1.333s1.412-0.597 1.412-1.333v-13.732z"></path>
</symbol>
<symbol id="icon-icon-logo-mobile" viewBox="0 0 32 32">
<path fill="#8baa36" style="fill: var(--color2, #8baa36)" d="M9.6 0h12.8c5.302 0 9.6 4.298 9.6 9.6v12.8c0 5.302-4.298 9.6-9.6 9.6h-12.8c-5.302 0-9.6-4.298-9.6-9.6v-12.8c0-5.302 4.298-9.6 9.6-9.6z"></path>
<path fill="none" stroke="#fafafa" style="stroke: var(--color3, #fafafa)" stroke-linejoin="round" stroke-linecap="round" stroke-miterlimit="4" stroke-width="1.6" d="M7.039 7.117v4.072c0 1.163 0.507 2.192 1.294 2.858 0.385 0.326 0.639 0.766 0.639 1.254v6.797c0 0.756 0.649 1.369 1.449 1.369s1.449-0.613 1.449-1.369v-6.797c0-0.488 0.254-0.928 0.639-1.254 0.787-0.666 1.294-1.696 1.294-2.858v0"></path>
<path fill="none" stroke="#fafafa" style="stroke: var(--color3, #fafafa)" stroke-linejoin="round" stroke-linecap="round" stroke-miterlimit="4" stroke-width="1.6" d="M10.42 11.603v-4.563"></path>
<path fill="none" stroke="#fafafa" style="stroke: var(--color3, #fafafa)" stroke-linejoin="round" stroke-linecap="round" stroke-miterlimit="4" stroke-width="1.6" d="M23.466 8c0-0.504-0.433-0.913-0.966-0.913h-0.966c-1.601 0-2.899 1.226-2.899 2.738v5.476c0 1.19 0.809 2.193 1.933 2.57v4.227c0 0.756 0.649 1.369 1.449 1.369s1.449-0.613 1.449-1.369v-14.098z"></path>
</symbol>
<symbol id="icon-icon-logo" viewBox="0 0 32 32">
<path fill="#8baa36" style="fill: var(--color2, #8baa36)" d="M8.727 0h14.545c4.82 0 8.727 3.907 8.727 8.727v14.545c0 4.82-3.907 8.727-8.727 8.727h-14.545c-4.82 0-8.727-3.907-8.727-8.727v-14.545c0-4.82 3.907-8.727 8.727-8.727z"></path>
<path fill="none" stroke="#fafafa" style="stroke: var(--color3, #fafafa)" stroke-linejoin="round" stroke-linecap="round" stroke-miterlimit="4" stroke-width="1.4545" d="M7.273 7.347v3.966c0 1.132 0.494 2.135 1.26 2.784 0.375 0.317 0.622 0.746 0.622 1.221v6.62c0 0.736 0.633 1.333 1.412 1.333s1.412-0.597 1.412-1.333v-6.62c0-0.476 0.248-0.904 0.622-1.221 0.766-0.649 1.26-1.652 1.26-2.784v0"></path>
<path fill="none" stroke="#fafafa" style="stroke: var(--color3, #fafafa)" stroke-linejoin="round" stroke-linecap="round" stroke-miterlimit="4" stroke-width="1.4545" d="M10.567 11.717v-4.444"></path>
<path fill="none" stroke="#fafafa" style="stroke: var(--color3, #fafafa)" stroke-linejoin="round" stroke-linecap="round" stroke-miterlimit="4" stroke-width="1.4545" d="M23.273 8.208c0-0.491-0.422-0.889-0.941-0.889h-0.941c-1.559 0-2.823 1.194-2.823 2.667v5.333c0 1.159 0.788 2.136 1.882 2.503v4.117c0 0.736 0.633 1.333 1.412 1.333s1.412-0.597 1.412-1.333v-13.732z"></path>
</symbol>
<symbol id="icon-icon-edit" viewBox="0 0 32 32">
<path stroke-linejoin="round" stroke-linecap="round" stroke-miterlimit="4" stroke-width="2.7733" d="M4.536 24.602c0.098-0.882 0.147-1.323 0.28-1.735 0.118-0.366 0.286-0.714 0.497-1.035 0.239-0.362 0.552-0.676 1.18-1.303l15.729-15.729c1.375-1.375 3.603-1.375 4.978 0v0c1.375 1.375 1.375 3.603 0 4.978l-15.729 15.729c-0.628 0.628-0.941 0.941-1.303 1.18-0.321 0.212-0.669 0.379-1.035 0.497-0.412 0.134-0.853 0.182-1.735 0.281l-3.22 0.358 0.358-3.22z"></path>
</symbol>
<symbol id="icon-icon-plus" viewBox="0 0 32 32">
<path fill="#8baa36" style="fill: var(--color2, #8baa36)" d="M32 16c0 8.837-7.163 16-16 16s-16-7.163-16-16c0-8.837 7.163-16 16-16s16 7.163 16 16z"></path>
<path fill="none" stroke="#fafafa" style="stroke: var(--color3, #fafafa)" stroke-linejoin="round" stroke-linecap="round" stroke-miterlimit="4" stroke-width="2.6667" d="M16 9v14"></path>
<path fill="none" stroke="#fafafa" style="stroke: var(--color3, #fafafa)" stroke-linejoin="round" stroke-linecap="round" stroke-miterlimit="4" stroke-width="2.6667" d="M9 16h14"></path>
</symbol>
<symbol id="icon-icon-close" viewBox="0 0 32 32">
<path stroke-linejoin="round" stroke-linecap="round" stroke-miterlimit="4" stroke-width="2.6667" d="M25 7l-18 18"></path>
<path stroke-linejoin="round" stroke-linecap="round" stroke-miterlimit="4" stroke-width="2.6667" d="M25 25l-18-18"></path>
</symbol>
<symbol id="icon-icon-search" viewBox="0 0 32 32">
<path stroke-linejoin="round" stroke-linecap="round" stroke-miterlimit="4" stroke-width="2.6667" d="M14.667 25.333c5.891 0 10.667-4.776 10.667-10.667s-4.776-10.667-10.667-10.667c-5.891 0-10.667 4.776-10.667 10.667s4.776 10.667 10.667 10.667z"></path>
<path stroke-linejoin="round" stroke-linecap="round" stroke-miterlimit="4" stroke-width="2.6667" d="M28.001 28l-5.8-5.8"></path>
</symbol>
<symbol id="icon-icon-social-instagram" viewBox="0 0 32 32">
<path fill="#8baa36" style="fill: var(--color2, #8baa36)" d="M22.349 3.301c1.683 0.005 3.295 0.676 4.484 1.865s1.86 2.802 1.865 4.484v12.698c-0.005 1.683-0.676 3.295-1.865 4.484s-2.802 1.86-4.484 1.865h-12.698c-1.682-0.005-3.295-0.676-4.484-1.865s-1.86-2.802-1.865-4.484v-12.698c0.005-1.682 0.676-3.295 1.865-4.484s2.802-1.86 4.484-1.865h12.698zM22.349 0.762h-12.698c-4.889 0-8.889 4-8.889 8.889v12.698c0 4.889 4 8.889 8.889 8.889h12.698c4.889 0 8.889-4 8.889-8.889v-12.698c0-4.889-4-8.889-8.889-8.889z"></path>
<path fill="#8baa36" style="fill: var(--color2, #8baa36)" d="M24.254 9.654c-0.377 0-0.745-0.112-1.058-0.321s-0.557-0.507-0.702-0.855-0.182-0.731-0.108-1.101c0.074-0.369 0.255-0.709 0.521-0.975s0.606-0.448 0.975-0.521c0.369-0.074 0.752-0.036 1.101 0.108s0.645 0.388 0.855 0.702c0.209 0.313 0.321 0.681 0.321 1.058 0.001 0.25-0.048 0.498-0.144 0.73s-0.236 0.442-0.413 0.619c-0.177 0.177-0.387 0.317-0.619 0.413s-0.479 0.144-0.73 0.144zM16 10.923c1.005 0 1.987 0.298 2.822 0.856s1.486 1.351 1.871 2.28c0.384 0.928 0.485 1.95 0.289 2.935s-0.68 1.89-1.39 2.601-1.615 1.194-2.601 1.39c-0.985 0.196-2.007 0.095-2.935-0.289s-1.722-1.036-2.28-1.871c-0.558-0.835-0.856-1.817-0.856-2.822 0.001-1.347 0.537-2.638 1.489-3.59s2.243-1.488 3.59-1.489zM16 8.383c-1.507 0-2.98 0.447-4.233 1.284s-2.229 2.027-2.806 3.419c-0.577 1.392-0.728 2.924-0.434 4.402s1.020 2.835 2.085 3.901c1.066 1.066 2.423 1.791 3.901 2.085s3.010 0.143 4.402-0.434c1.392-0.577 2.582-1.553 3.419-2.806s1.284-2.726 1.284-4.233c0-2.021-0.803-3.959-2.232-5.388s-3.367-2.232-5.387-2.232z"></path>
</symbol>
<symbol id="icon-icon-social-twitter" viewBox="0 0 32 32">
<path fill="#8baa36" style="fill: var(--color2, #8baa36)" d="M32 6.233c-1.2 0.522-2.47 0.865-3.77 1.020 1.366-0.8 2.393-2.070 2.889-3.573-1.291 0.755-2.702 1.285-4.171 1.567-0.619-0.648-1.363-1.164-2.187-1.516s-1.711-0.532-2.607-0.531c-3.628 0-6.564 2.893-6.564 6.46-0.003 0.496 0.054 0.991 0.169 1.473-2.602-0.122-5.149-0.786-7.479-1.948s-4.392-2.799-6.054-4.805c-0.583 0.983-0.891 2.104-0.893 3.247 0 2.24 1.169 4.22 2.933 5.38-1.046-0.025-2.070-0.302-2.985-0.807v0.080c0 3.133 2.267 5.74 5.267 6.333-0.564 0.15-1.146 0.227-1.729 0.227-0.414 0.001-0.828-0.040-1.234-0.12 0.834 2.567 3.261 4.433 6.137 4.487-2.336 1.801-5.205 2.774-8.155 2.767-0.524-0.001-1.047-0.032-1.567-0.093 3.001 1.916 6.489 2.93 10.049 2.92 12.091 0 18.696-9.847 18.696-18.387 0-0.28-0.007-0.56-0.021-0.833 1.282-0.912 2.391-2.045 3.275-3.347z"></path>
</symbol>
<symbol id="icon-icon-social-youtube" viewBox="0 0 32 32">
<path fill="#8baa36" style="fill: var(--color2, #8baa36)" d="M31.794 9.299c0-2.812-2.069-5.075-4.626-5.075-3.463-0.162-6.995-0.224-10.604-0.224h-1.125c-3.6 0-7.138 0.063-10.601 0.225-2.55 0-4.619 2.275-4.619 5.087-0.156 2.224-0.223 4.449-0.219 6.674-0.006 2.225 0.065 4.452 0.213 6.681 0 2.812 2.069 5.094 4.619 5.094 3.638 0.169 7.37 0.244 11.164 0.237 3.8 0.012 7.522-0.067 11.164-0.237 2.557 0 4.626-2.281 4.626-5.094 0.15-2.231 0.219-4.456 0.213-6.687 0.014-2.225-0.054-4.452-0.204-6.681zM12.94 22.118v-12.281l9.064 6.137-9.064 6.144z"></path>
</symbol>
<symbol id="icon-icon-social-facebook" viewBox="0 0 32 32">
<path fill="#8baa36" style="fill: var(--color2, #8baa36)" d="M31.238 16.092c0-8.466-6.823-15.33-15.238-15.33s-15.238 6.864-15.238 15.33c0 7.651 5.571 13.994 12.857 15.145v-10.712h-3.87v-4.433h3.87v-3.377c0-3.841 2.276-5.965 5.756-5.965 1.667 0 3.412 0.3 3.412 0.3v3.773h-1.922c-1.892 0-2.484 1.181-2.484 2.395v2.874h4.226l-0.675 4.433h-3.55v10.713c7.286-1.15 12.857-7.493 12.857-15.146z"></path>
</symbol>
<symbol id="icon-icon-password" viewBox="0 0 32 32">
<path fill="none" stroke="#fafafa" style="stroke: var(--color3, #fafafa)" stroke-linejoin="round" stroke-linecap="round" stroke-miterlimit="4" stroke-width="3.0476" d="M23.619 14.476v-4.571c0-4.208-3.411-7.619-7.619-7.619s-7.619 3.411-7.619 7.619v4.571M9.6 29.714h12.8c2.56 0 3.84 0 4.818-0.498 0.86-0.438 1.559-1.138 1.998-1.998 0.498-0.978 0.498-2.258 0.498-4.818v-0.61c0-2.56 0-3.84-0.498-4.818-0.438-0.86-1.138-1.559-1.998-1.998-0.978-0.498-2.258-0.498-4.818-0.498h-12.8c-2.56 0-3.84 0-4.818 0.498-0.86 0.438-1.559 1.138-1.998 1.998-0.498 0.978-0.498 2.258-0.498 4.818v0.61c0 2.56 0 3.84 0.498 4.818 0.438 0.86 1.138 1.559 1.998 1.998 0.978 0.498 2.258 0.498 4.818 0.498z"></path>
</symbol>
<symbol id="icon-icon-email" viewBox="0 0 32 32">
<path fill="none" stroke="#fafafa" style="stroke: var(--color3, #fafafa)" stroke-linejoin="round" stroke-linecap="round" stroke-miterlimit="4" stroke-width="2.9091" d="M1.455 8.727l11.876 8.313c0.962 0.673 1.443 1.010 1.966 1.14 0.462 0.115 0.945 0.115 1.407 0 0.523-0.13 1.004-0.467 1.966-1.14l11.876-8.313M8.436 27.636h15.127c2.444 0 3.666 0 4.599-0.476 0.821-0.418 1.489-1.086 1.907-1.907 0.476-0.934 0.476-2.155 0.476-4.599v-9.309c0-2.444 0-3.666-0.476-4.599-0.418-0.821-1.086-1.489-1.907-1.907-0.934-0.476-2.155-0.476-4.599-0.476h-15.127c-2.444 0-3.666 0-4.599 0.476-0.821 0.418-1.489 1.086-1.907 1.907-0.476 0.933-0.476 2.155-0.476 4.599v9.309c0 2.444 0 3.666 0.476 4.599 0.418 0.821 1.086 1.489 1.907 1.907 0.933 0.476 2.155 0.476 4.599 0.476z"></path>
</symbol>
<symbol id="icon-icon-user" viewBox="0 0 32 32">
<path fill="none" stroke="#fafafa" style="stroke: var(--color3, #fafafa)" stroke-linejoin="round" stroke-linecap="round" stroke-miterlimit="4" stroke-width="3.0476" d="M28.19 29.714c0-2.127 0-3.19-0.262-4.055-0.591-1.948-2.116-3.473-4.064-4.064-0.865-0.262-1.928-0.262-4.055-0.262h-7.619c-2.127 0-3.19 0-4.055 0.262-1.948 0.591-3.473 2.116-4.063 4.064-0.262 0.865-0.262 1.928-0.262 4.055M22.857 9.143c0 3.787-3.070 6.857-6.857 6.857s-6.857-3.070-6.857-6.857c0-3.787 3.070-6.857 6.857-6.857s6.857 3.070 6.857 6.857z"></path>
</symbol>
<symbol id="icon-clock" viewBox="0 0 32 32">
<path stroke-linejoin="round" stroke-linecap="round" stroke-miterlimit="4" stroke-width="2.9714" d="M15.998 29.334c7.364 0 13.333-5.97 13.333-13.333s-5.97-13.333-13.333-13.333-13.333 5.97-13.333 13.333c0 7.364 5.97 13.333 13.333 13.333z"></path>
<path stroke-linejoin="round" stroke-linecap="round" stroke-miterlimit="4" stroke-width="2.9714" d="M16 8v8l5.333 2.667"></path>
</symbol>
<symbol id="icon-page-not-found-with-people-connecting-a-plug-desktop" viewBox="0 0 49 32">
<path fill="#8baa36" style="fill: var(--color1, #8baa36)" d="M40.242 15.673c0 0 2.395 0.233 3.608 1.689 0 0 1.283-1.687 3.586-1.652 0.563-0.666 0.921-1.475 1.033-2.333s-0.027-1.73-0.4-2.514c-0.373-0.784-0.966-1.448-1.709-1.914s-1.605-0.716-2.487-0.72-1.747 0.238-2.494 0.697c-0.747 0.459-1.346 1.118-1.727 1.898s-0.528 1.651-0.424 2.51 0.455 1.671 1.011 2.343l0.001-0.004z"></path>
<path fill="#fafafa" style="fill: var(--color2, #fafafa)" opacity="0.5" d="M40.242 15.673c0 0 2.395 0.233 3.608 1.689 0 0 1.283-1.687 3.586-1.652 0.563-0.666 0.921-1.475 1.033-2.333s-0.027-1.73-0.4-2.514c-0.373-0.784-0.966-1.448-1.709-1.914s-1.605-0.716-2.487-0.72-1.747 0.238-2.494 0.697c-0.747 0.459-1.346 1.118-1.727 1.898s-0.528 1.651-0.424 2.51 0.455 1.671 1.011 2.343l0.001-0.004z"></path>
<path fill="#b8b8b8" style="fill: var(--color3, #b8b8b8)" d="M43.77 8.551l-0.080 15.226h0.404l-0.324-15.226z"></path>
<path fill="#b8b8b8" style="fill: var(--color3, #b8b8b8)" d="M43.891 16.918c0 0 0.808-1.428 2.263-1.865 0 0-1.536 0.358-2.299 1.587l0.036 0.278z"></path>
<path fill="#b8b8b8" style="fill: var(--color3, #b8b8b8)" d="M43.891 12.873c0 0 0.808-1.428 2.263-1.865 0 0-1.536 0.357-2.299 1.587l0.036 0.278z"></path>
<path fill="#b8b8b8" style="fill: var(--color3, #b8b8b8)" d="M43.891 14.894c0 0 0.808-1.428 2.263-1.865 0 0-1.536 0.358-2.299 1.587l0.036 0.278z"></path>
<path fill="#b8b8b8" style="fill: var(--color3, #b8b8b8)" d="M43.771 13.903c0 0-0.781-1.427-2.185-1.864 0 0 1.483 0.357 2.223 1.587l-0.039 0.277z"></path>
<path fill="#b8b8b8" style="fill: var(--color3, #b8b8b8)" d="M43.771 15.887c0 0-0.781-1.428-2.185-1.864 0 0 1.483 0.357 2.223 1.586l-0.039 0.278z"></path>
<path fill="#8baa36" style="fill: var(--color1, #8baa36)" d="M1.045 15.673c0 0 2.395 0.233 3.608 1.689 0 0 1.283-1.687 3.586-1.652 0.563-0.666 0.921-1.475 1.033-2.333s-0.026-1.73-0.4-2.514c-0.373-0.784-0.966-1.448-1.709-1.914s-1.605-0.716-2.487-0.72c-0.882-0.004-1.747 0.238-2.494 0.697s-1.346 1.118-1.727 1.898c-0.381 0.78-0.527 1.651-0.423 2.51s0.455 1.672 1.011 2.343l0.001-0.004z"></path>
<path fill="#fafafa" style="fill: var(--color2, #fafafa)" opacity="0.5" d="M1.045 15.673c0 0 2.395 0.233 3.608 1.689 0 0 1.283-1.687 3.586-1.652 0.563-0.666 0.921-1.475 1.033-2.333s-0.026-1.73-0.4-2.514c-0.373-0.784-0.966-1.448-1.709-1.914s-1.605-0.716-2.487-0.72c-0.882-0.004-1.747 0.238-2.494 0.697s-1.346 1.118-1.727 1.898c-0.381 0.78-0.527 1.651-0.423 2.51s0.455 1.672 1.011 2.343l0.001-0.004z"></path>
<path fill="#b8b8b8" style="fill: var(--color3, #b8b8b8)" d="M4.574 8.551l-0.082 15.226h0.404l-0.323-15.226z"></path>
<path fill="#b8b8b8" style="fill: var(--color3, #b8b8b8)" d="M4.697 16.918c0 0 0.808-1.428 2.263-1.865 0 0-1.536 0.358-2.299 1.587l0.036 0.278z"></path>
<path fill="#b8b8b8" style="fill: var(--color3, #b8b8b8)" d="M4.697 12.873c0 0 0.808-1.428 2.263-1.865 0 0-1.536 0.357-2.299 1.587l0.036 0.278z"></path>
<path fill="#b8b8b8" style="fill: var(--color3, #b8b8b8)" d="M4.697 14.894c0 0 0.808-1.428 2.263-1.865 0 0-1.536 0.358-2.299 1.587l0.036 0.278z"></path>
<path fill="#b8b8b8" style="fill: var(--color3, #b8b8b8)" d="M4.575 13.903c0 0-0.781-1.427-2.185-1.864 0 0 1.483 0.357 2.224 1.587l-0.039 0.277z"></path>
<path fill="#b8b8b8" style="fill: var(--color3, #b8b8b8)" d="M4.575 15.887c0 0-0.781-1.428-2.185-1.864 0 0 1.483 0.357 2.224 1.586l-0.039 0.278z"></path>
<path fill="#8baa36" style="fill: var(--color1, #8baa36)" d="M30.511 17.149c0 0 1.96 0.19 2.953 1.382 0 0 1.050-1.381 2.935-1.353 0.46-0.545 0.754-1.208 0.845-1.91s-0.022-1.416-0.328-2.057-0.791-1.184-1.399-1.566c-0.608-0.381-1.314-0.586-2.036-0.589s-1.429 0.195-2.041 0.571c-0.611 0.376-1.101 0.915-1.413 1.554s-0.431 1.351-0.346 2.054c0.085 0.703 0.372 1.368 0.828 1.917l0.001-0.003z"></path>
<path fill="#fafafa" style="fill: var(--color2, #fafafa)" opacity="0.5" d="M30.511 17.149c0 0 1.96 0.19 2.953 1.382 0 0 1.050-1.381 2.935-1.353 0.46-0.545 0.754-1.208 0.845-1.91s-0.022-1.416-0.328-2.057-0.791-1.184-1.399-1.566c-0.608-0.381-1.314-0.586-2.036-0.589s-1.429 0.195-2.041 0.571c-0.611 0.376-1.101 0.915-1.413 1.554s-0.431 1.351-0.346 2.054c0.085 0.703 0.372 1.368 0.828 1.917l0.001-0.003z"></path>
<path fill="#b8b8b8" style="fill: var(--color3, #b8b8b8)" d="M33.399 11.314l-0.066 12.462h0.331l-0.265-12.462z"></path>
<path fill="#b8b8b8" style="fill: var(--color3, #b8b8b8)" d="M33.499 18.163c0 0 0.663-1.169 1.853-1.526 0 0-1.254 0.292-1.881 1.299l0.028 0.228z"></path>
<path fill="#b8b8b8" style="fill: var(--color3, #b8b8b8)" d="M33.499 14.853c0 0 0.663-1.169 1.853-1.525 0 0-1.254 0.292-1.881 1.298l0.028 0.228z"></path>
<path fill="#b8b8b8" style="fill: var(--color3, #b8b8b8)" d="M33.499 16.508c0 0 0.663-1.169 1.853-1.526 0 0-1.254 0.292-1.881 1.299l0.028 0.228z"></path>
<path fill="#b8b8b8" style="fill: var(--color3, #b8b8b8)" d="M33.4 15.696c0 0-0.638-1.169-1.788-1.525 0 0 1.213 0.292 1.82 1.298l-0.032 0.228z"></path>
<path fill="#b8b8b8" style="fill: var(--color3, #b8b8b8)" d="M33.4 17.319c0 0-0.638-1.169-1.788-1.525 0 0 1.213 0.292 1.82 1.299l-0.032 0.227z"></path>
<path fill="#8baa36" style="fill: var(--color1, #8baa36)" d="M11.545 17.149c0 0 1.96 0.19 2.953 1.382 0 0 1.045-1.381 2.935-1.353 0.46-0.545 0.753-1.208 0.845-1.91s-0.022-1.416-0.328-2.057c-0.306-0.641-0.791-1.184-1.399-1.566s-1.314-0.586-2.036-0.589c-0.722-0.003-1.429 0.195-2.041 0.571s-1.101 0.915-1.413 1.554c-0.311 0.639-0.431 1.351-0.346 2.054s0.372 1.368 0.828 1.917l0.001-0.003z"></path>
<path fill="#fafafa" style="fill: var(--color2, #fafafa)" opacity="0.5" d="M11.545 17.149c0 0 1.96 0.19 2.953 1.382 0 0 1.045-1.381 2.935-1.353 0.46-0.545 0.753-1.208 0.845-1.91s-0.022-1.416-0.328-2.057c-0.306-0.641-0.791-1.184-1.399-1.566s-1.314-0.586-2.036-0.589c-0.722-0.003-1.429 0.195-2.041 0.571s-1.101 0.915-1.413 1.554c-0.311 0.639-0.431 1.351-0.346 2.054s0.372 1.368 0.828 1.917l0.001-0.003z"></path>
<path fill="#b8b8b8" style="fill: var(--color3, #b8b8b8)" d="M14.434 11.314l-0.066 12.463h0.331l-0.265-12.463z"></path>
<path fill="#b8b8b8" style="fill: var(--color3, #b8b8b8)" d="M14.538 18.164c0 0 0.662-1.169 1.853-1.526 0 0-1.254 0.292-1.881 1.299l0.028 0.228z"></path>
<path fill="#b8b8b8" style="fill: var(--color3, #b8b8b8)" d="M14.538 14.853c0 0 0.662-1.169 1.853-1.525 0 0-1.254 0.292-1.881 1.298l0.028 0.228z"></path>
<path fill="#b8b8b8" style="fill: var(--color3, #b8b8b8)" d="M14.538 16.508c0 0 0.662-1.169 1.853-1.526 0 0-1.254 0.292-1.881 1.299l0.028 0.228z"></path>
<path fill="#b8b8b8" style="fill: var(--color3, #b8b8b8)" d="M14.434 15.696c0 0-0.637-1.169-1.787-1.52 0 0 1.213 0.292 1.82 1.298l-0.033 0.222z"></path>
<path fill="#b8b8b8" style="fill: var(--color3, #b8b8b8)" d="M14.434 17.319c0 0-0.638-1.169-1.788-1.525 0 0 1.213 0.292 1.82 1.299l-0.032 0.227z"></path>
<path fill="#000" style="fill: var(--color4, #000)" opacity="0.3" d="M14.078 28.778c0 0.308-1.926 0.552-4.303 0.552s-4.303-0.247-4.303-0.552c0-0.305 1.927-0.552 4.303-0.552s4.303 0.248 4.303 0.552z"></path>
<path fill="#000" style="fill: var(--color4, #000)" opacity="0.3" d="M23.086 28.778c0 0.307-1.927 0.552-4.303 0.552s-4.303-0.247-4.303-0.552 1.927-0.552 4.303-0.552c2.376 0 4.303 0.248 4.303 0.552z"></path>
<path fill="#000" style="fill: var(--color4, #000)" opacity="0.3" d="M35.019 28.778c0 0.307-1.926 0.552-4.302 0.552s-4.303-0.247-4.303-0.552 1.926-0.552 4.303-0.552c2.377 0 4.302 0.248 4.302 0.552z"></path>
<path fill="#000" style="fill: var(--color4, #000)" opacity="0.3" d="M44.987 28.778c0 0.307-1.927 0.552-4.303 0.552s-4.307-0.247-4.307-0.552 1.927-0.552 4.303-0.552c2.376 0 4.307 0.248 4.307 0.552z"></path>
<path fill="#fafafa" style="fill: var(--color2, #fafafa)" d="M31.182 12.615c0 0-0.177 0.718-0.177 0.838 0 0.075-0.008 0.149-0.025 0.222 0 0-0.377 0.444-0.327 0.567 0.061 0.096 0.148 0.172 0.252 0.221 0 0 0.201 0.718 0.402 0.765 0.207 0.038 0.417 0.063 0.627 0.074l0.075 0.591 1.005-0.148-0.251-0.888 0.104-0.765c0 0 0.176-0.32 0-0.837s-0.553-0.542-0.805-0.542c-0.296-0.018-0.59-0.052-0.882-0.099z"></path>
<path fill="#22252a" style="fill: var(--color5, #22252a)" d="M31.634 12.246c0 0-0.88-0.026-0.855 0.197s0.93 0.513 0.93 0.513-0.302 0.197-0.152 0.395c0.15 0.198 0.503 0.37 0.503 0.37s-0.104 0.419 0.051 0.444c0.156 0.025 0.251-0.198 0.276-0.272s0.302-0.049 0.377 0.148c0.043 0.102 0.068 0.211 0.075 0.321 0 0 0.302-0.888 0.352-1.282s-1.080-0.832-1.558-0.832z"></path>
<path fill="#fafafa" style="fill: var(--color2, #fafafa)" d="M32.191 14.176c0 0 0.304-0.656 0.486-0.333s0.104 0.659-0.074 0.695c-0.179 0.036-0.328 0.071-0.328 0.071z"></path>
<path fill="#22252a" style="fill: var(--color5, #22252a)" d="M30.955 21.022c-0.049 0.056-0.855 1.751-0.955 2.318s-0.753 3.945-0.779 4.093-1.407 0.444-1.508 0.469c-0.101 0.024 0.104 0.296 0.402 0.37s1.157 0.419 1.358 0.222c0.202-0.198 0.478-1.307 0.553-1.43s1.49-3.393 1.49-3.393c0 0 0.725-1.569 0.876-1.718s-0.179-0.806-0.305-1.003c-0.127-0.198-0.78-0.321-1.132 0.074z"></path>
<path fill="#22252a" style="fill: var(--color5, #22252a)" d="M30.805 21.044c0 0 0.352 1.653 0.528 2.244 0.164 0.497 0.411 0.963 0.731 1.381 0.202 0.272 1.182 2.665 1.182 2.665l0.15 0.37c0 0-0.050 0.148-0.326 0.344s-1.056 0.518-0.855 0.592c0.202 0.075 1.005 0.074 1.383 0.049 0.325-0.023 0.629-0.163 0.854-0.395 0.152-0.173-0.251-0.666-0.251-0.765s-0.88-3.106-0.93-3.255c-0.050-0.149-0.302-1.208-0.302-1.208v-1.204c0 0 0.126-0.221 0.126-0.718s-0.377-0.593-0.377-0.593l-2.062 0.198 0.149 0.292z"></path>
<path fill="#8baa36" style="fill: var(--color1, #8baa36)" d="M30.629 20.899c0 0 0.051 0.419 0.202 0.444s1.708 0.444 2.388-0.049c0 0 0.125-0.37 0.050-0.468s-0.252-0.049-1.156-0.049c-0.904 0-1.484 0-1.484 0.123z"></path>
<path fill="#8baa36" style="fill: var(--color1, #8baa36)" d="M32.94 15.376c0 0-0.93 0.123-1.332 0.513s-0.753 1.11-0.929 1.775c-0.175 0.665-0.302 3.107-0.051 3.23s2.363 0.247 2.717 0.102-0.025-1.307-0.025-1.751c0-0.444 0.402-1.948 0.327-2.785s-0.706-1.085-0.706-1.085z"></path>
<path fill="#22252a" style="fill: var(--color5, #22252a)" d="M29.585 17.939c-0.011-1.015-0.434-1.881-0.995-2.255v-0.205l-1.546 0.015c-0.87 0.009-1.567 1.128-1.55 2.491s0.731 2.467 1.603 2.46l1.546-0.015v-0.205c0.543-0.397 0.947-1.271 0.942-2.286z"></path>
<path fill="#fafafa" style="fill: var(--color2, #fafafa)" d="M30.279 17.932c-0.011-1.066-0.43-1.976-1.020-2.372v-0.218l-0.663 0.007c-0.915 0.009-1.643 1.181-1.628 2.617s0.769 2.592 1.684 2.583l0.663-0.007v-0.217c0.576-0.408 0.975-1.331 0.963-2.392z"></path>
<path fill="#737373" style="fill: var(--color6, #737373)" d="M30.943 17.925c0.016 1.435-0.714 2.608-1.628 2.617s-1.672-1.147-1.684-2.582c-0.013-1.435 0.714-2.608 1.628-2.618s1.667 1.147 1.684 2.583z"></path>
<path fill="#22252a" style="fill: var(--color5, #22252a)" d="M30.563 17.881c0.007 0.68-0.338 1.235-0.772 1.24s-0.791-0.544-0.798-1.23 0.339-1.23 0.772-1.24c0.434-0.010 0.791 0.549 0.798 1.23z"></path>
<path fill="#22252a" style="fill: var(--color5, #22252a)" d="M42.877 22.991c0.086-0.632 0.123-1.269 0.11-1.907-0.34 0.154-2.321 0.21-2.503 0.214s-2.163-0.060-2.502-0.214c-0.015 0.637 0.020 1.275 0.104 1.907 0.137 0.831 1.341 4.16 1.368 4.321 0.035 0.155 0.081 0.308 0.137 0.457 0 0-0.684 0.483-0.985 0.67s-0.081 0.269 0.219 0.269c0.301 0 0.93-0.081 1.121-0.081 0.169 0 0.464-0.145 0.533-0.179 0.069 0.035 0.364 0.179 0.532 0.179 0.192 0 0.821 0.081 1.122 0.081s0.523-0.081 0.219-0.269c-0.303-0.187-0.985-0.67-0.985-0.67 0.056-0.149 0.102-0.302 0.137-0.457 0.032-0.164 1.236-3.492 1.373-4.321z"></path>
<path fill="#8baa36" style="fill: var(--color1, #8baa36)" d="M40.070 15.866c0 0-1.058 0.339-1.605 0.68s-1.095 2.183-1.095 2.255c-0.031 0.128-0.074 0.254-0.127 0.375 0 0-0.548-0.125-0.656 0.322s0.546 1.020 0.893 1.038 0.456-0.089 0.456-0.089c0 0-0.218 0.43-0.127 0.608s0.858 0.842 2.372 0.82c1.514-0.022 2.612-0.269 2.772-0.483s0.183-0.662 0.183-0.662 0.565-0.143 0.766-0.501c0.201-0.358 0.164-0.734 0.054-1.109s-0.675-1.465-1.057-2.074-1.186-0.948-1.567-1.056c-0.382-0.108-1.005-0.124-1.26-0.124z"></path>
<path fill="#fafafa" style="fill: var(--color2, #fafafa)" d="M40.391 17.373c0.152-0.049 0.627-0.463 0.81-0.877 0.072-0.159 0.123-0.326 0.152-0.497l-0.024-0.007c-0.383-0.108-1.003-0.125-1.254-0.125 0 0-0.222 0.071-0.514 0.18 0.002 0.222 0.044 0.441 0.125 0.648 0.165 0.414 0.558 0.729 0.705 0.679z"></path>
<path fill="#8baa36" style="fill: var(--color1, #8baa36)" d="M39.95 28.629c0.169 0 0.464-0.145 0.533-0.179 0.069 0.035 0.364 0.179 0.532 0.179 0.192 0 0.821 0.081 1.122 0.081s0.522-0.081 0.219-0.268c-0.262-0.163-0.812-0.549-0.952-0.647-0.323 0.289-0.961 0.217-0.961 0.217-0.129-0.019-0.257-0.046-0.383-0.080-0.191-0.054-0.465-0.161-0.465-0.161s-0.684 0.483-0.985 0.671c-0.301 0.187-0.081 0.268 0.219 0.268s0.93-0.081 1.121-0.081z"></path>
<path fill="#22252a" style="fill: var(--color5, #22252a)" d="M39.023 13.181c0 0-0.568 0.334-0.484 0.627s0.342 0.35 0.285 0.513c-0.056 0.163-0.254 0.265-0.029 0.368 0.128 0.056 0.262 0.098 0.399 0.126 0 0 0.209 0.711 0.568 0.836s0.982 0.042 1.423-0.013c0.149-0.014 0.29-0.073 0.404-0.168s0.196-0.222 0.235-0.363c0.043-0.153-0.185 0.029-0.299-0.139s0.057-0.6 0.185-0.977-0.256-1.089-0.753-1.325c-0.498-0.237-1.447-0.113-1.935 0.516z"></path>
<path fill="#fafafa" style="fill: var(--color2, #fafafa)" d="M39.979 15.611c-0.072 0.234-0.121 0.474-0.146 0.718-0.019 0.308 0.237 0.645 0.511 0.626s0.51-0.555 0.546-0.82c0.037-0.265-0.091-0.984-0.091-0.984s-0.418 0.018-0.584 0.161c-0.097 0.084-0.178 0.186-0.236 0.299z"></path>
<path fill="#fafafa" style="fill: var(--color2, #fafafa)" d="M39.608 13.571c0 0 0.014 0.418 0.441 0.82 0.257 0.244 0.562 0.434 0.895 0.559-0.007 0.092-0.031 0.181-0.071 0.264-0.019 0.035-0.048 0.063-0.083 0.082s-0.076 0.026-0.116 0.021h-0.143c0 0-0.209 0.481-0.462 0.55s-0.875 0.021-0.96-0.592c-0.086-0.614-0.099-1.116-0.028-1.242s0.527-0.461 0.527-0.461z"></path>
<path fill="#fafafa" style="fill: var(--color2, #fafafa)" d="M44.078 18.973c0.065-0.128 0.104-0.267 0.116-0.41 0-0.187-0.353-0.454-0.418-0.521s-0.13-0.059-0.143 0.034c-0 0.052 0.011 0.104 0.032 0.152s0.052 0.092 0.091 0.128c0.053 0.041 0.091 0.097 0.11 0.161 0.006 0.046-0.117 0.273-0.055 0.419s0.235 0.191 0.269 0.037z"></path>
<path fill="none" stroke="#22252a" style="stroke: var(--color5, #22252a)" stroke-linejoin="round" stroke-linecap="round" stroke-miterlimit="4" stroke-width="0.5915" d="M29.928 17.927c0 0 1.538 0.483 2.463 1.61s1.532 0.965 2.681 0.59 1.587-1.718 3.174-0.59c1.587 1.128 1.915 1.556 3.229 0.912s2.024-2.201 3.229-1.665c1.205 0.536 0.656 3.28 0.766 4.613s-0.055 4.671 0.218 5.101c0.274 0.429 3.065 0.102 3.065 0.102"></path>
<path fill="#8baa36" style="fill: var(--color1, #8baa36)" d="M32.809 16.135c0 0-0.306-0.49-0.758-0.362-0.478 0.135-0.724 0.805-0.836 1.222s-0.187 0.868-0.392 1.257c0 0-0.905-0.015-1.41-0.159-0.385-0.118-0.764-0.255-1.135-0.41 0 0-0.179-0.245-0.305-0.293s-0.455-0.142-0.479-0.069c-0.024 0.074 0.38 0.317 0.38 0.317s-0.752 0.102-0.827 0.181c-0.075 0.079 0.532 0.315 0.532 0.315s0.227 0.072 0.779-0.057c0 0 2.024 1.261 2.427 1.405s0.627 0.191 0.902-0.33c0.275-0.521 1.187-1.812 1.332-2.332z"></path>
<path fill="#fafafa" style="fill: var(--color2, #fafafa)" d="M28.805 17.892c-0.296-0.109-0.523-0.205-0.523-0.205s-0.179-0.245-0.305-0.293c-0.126-0.048-0.454-0.142-0.479-0.069s0.38 0.317 0.38 0.317c0 0-0.752 0.102-0.828 0.181s0.532 0.315 0.532 0.315c0 0 0.227 0.072 0.778-0.057l0.283 0.175 0.16-0.364z"></path>
<path fill="#fafafa" style="fill: var(--color2, #fafafa)" d="M36.605 19.162c-0.065-0.128-0.104-0.267-0.116-0.41 0-0.187 0.354-0.453 0.418-0.52s0.129-0.059 0.142 0.034c0 0.052-0.011 0.104-0.032 0.152s-0.052 0.092-0.091 0.128c-0.053 0.041-0.091 0.097-0.11 0.161-0.006 0.045 0.117 0.273 0.055 0.419s-0.234 0.189-0.267 0.036z"></path>
<path fill="#fafafa" style="fill: var(--color2, #fafafa)" d="M36.849 18.599c0 0-0.291 0.528-0.122 0.718s0.333-0.427 0.365-0.597c0.031-0.17-0.135-0.341-0.242-0.121z"></path>
<path fill="#fafafa" style="fill: var(--color2, #fafafa)" d="M37.089 18.789c0 0-0.292 0.528-0.122 0.718s0.333-0.426 0.365-0.597c0.031-0.17-0.135-0.348-0.242-0.121z"></path>
<path fill="#fafafa" style="fill: var(--color2, #fafafa)" d="M37.354 18.833c0 0-0.292 0.528-0.122 0.718s0.333-0.426 0.365-0.597c0.031-0.17-0.135-0.342-0.242-0.121z"></path>
<path fill="#fafafa" style="fill: var(--color2, #fafafa)" d="M37.692 18.837c0 0-0.272 0.41-0.123 0.565s0.308-0.332 0.34-0.472c0.031-0.14-0.116-0.277-0.216-0.092z"></path>
<path fill="#fafafa" style="fill: var(--color2, #fafafa)" d="M43.885 18.62c0 0 0.292 0.528 0.122 0.718s-0.333-0.427-0.365-0.598c-0.031-0.17 0.135-0.341 0.242-0.12z"></path>
<path fill="#fafafa" style="fill: var(--color2, #fafafa)" d="M43.644 18.804c0 0 0.292 0.528 0.122 0.718s-0.333-0.427-0.365-0.598c-0.031-0.17 0.135-0.34 0.242-0.12z"></path>
<path fill="#fafafa" style="fill: var(--color2, #fafafa)" d="M43.378 18.853c0 0 0.292 0.528 0.122 0.718s-0.333-0.426-0.364-0.598c-0.030-0.171 0.137-0.341 0.241-0.12z"></path>
<path fill="#fafafa" style="fill: var(--color2, #fafafa)" d="M43.041 18.857c0 0 0.272 0.415 0.123 0.565s-0.308-0.332-0.338-0.472c-0.030-0.14 0.115-0.277 0.215-0.092z"></path>
<path fill="#fafafa" style="fill: var(--color2, #fafafa)" d="M7.091 24.698v0.582c-0.206 0.221-0.354 0.488-0.432 0.777-0.126 0.476-0.522 2.523-0.418 2.576s1.088 0.274 1.401 0.228c0.359-0.053 0.666-0.035 0.485-0.23s-1.131-0.739-1.131-0.739 1.045-1.482 1.277-2.030c0.232-0.547 0.27-1.394 0.27-1.394l-1.402-0.052-0.050 0.282z"></path>
<path fill="#22252a" style="fill: var(--color5, #22252a)" d="M7.643 28.861c0.359-0.053 0.666-0.035 0.485-0.23s-1.131-0.739-1.131-0.739l-0.036 0.211-0.684-0.082c-0.050 0.342-0.072 0.593-0.036 0.615 0.112 0.049 1.088 0.271 1.401 0.225z"></path>
<path fill="#fafafa" style="fill: var(--color2, #fafafa)" d="M10.526 25l0.162 0.283c-0.067 0.127-0.107 0.266-0.116 0.409s0.012 0.286 0.062 0.42c0.162 0.494 0.54 2.312 0.54 2.417s0.233 0.176 0.418 0.176c0.185 0 0.697 0.035 0.769 0.035s0.594 0.088 0.773-0.017c0.18-0.106-0.229-0.318-0.498-0.441s-0.863-0.441-0.863-0.441 0.143-1.447 0.143-2.083c0-0.635 0.144-0.847-0.053-1.235s-1.439 0.177-1.439 0.177l0.102 0.299z"></path>
<path fill="#22252a" style="fill: var(--color5, #22252a)" d="M12.63 28.282c-0.27-0.124-0.863-0.441-0.863-0.441l-0.072 0.264-0.578 0.102c0.034 0.176 0.056 0.297 0.056 0.322 0 0.103 0.233 0.176 0.418 0.176s0.697 0.035 0.769 0.035c0.072 0 0.594 0.088 0.773-0.017s-0.234-0.319-0.504-0.442z"></path>
<path fill="#fafafa" style="fill: var(--color2, #fafafa)" d="M9.557 13.254c-0.141-0.236-0.302-0.461-0.482-0.67-0.248-0.274-1.024-0.258-1.365 0.102s-0.233 1.005-0.104 1.187c0.129 0.182 0.388 1.035 0.388 1.035l0.062 0.609 1.443 0.502-0.295-0.989c0 0 0.559-0.102 0.605-0.274s-0.093-0.746-0.093-0.746c0 0 0.186-0.122 0.17-0.229s-0.329-0.528-0.329-0.528z"></path>
<path fill="#22252a" style="fill: var(--color5, #22252a)" d="M7.897 13.91c0 0 0.247 0.205 0.381-0.030s0.237-0.464 0.237-0.663c0-0.199-0.507-0.364-0.169-0.497s0.581 0.163 0.731-0.134c0.15-0.297 0.014-0.329-0.797-0.329s-1.216 0.398-1.045 0.895c0.137 0.367 0.307 0.722 0.507 1.060l0.155-0.301z"></path>
<path fill="#fafafa" style="fill: var(--color2, #fafafa)" d="M8.165 14.107c0 0-0.186-0.38-0.372-0.307s-0.093 0.67 0.093 0.731c0.063 0.014 0.127 0.013 0.189-0.003s0.119-0.046 0.167-0.088c0 0 0.156 0.32 0.342 0.41z"></path>
<path fill="#8baa36" style="fill: var(--color1, #8baa36)" d="M6.944 20.941l-0.116 1.458-0.347 2.158c0 0 0.811 0.624 1.567 0.624s0.964-0.094 0.964-0.094l0.424-2.214 0.424 2.328c0 0 0.836-0.132 1.39-0.266 0.385-0.105 0.75-0.271 1.080-0.492l-1.119-2.858-0.242-1.474c0 0-1.254 0.114-2.007 0.152s-1.755-0.152-1.755-0.152l-0.263 0.83z"></path>
<path fill="#22252a" style="fill: var(--color5, #22252a)" d="M7.74 15.117c0 0 1.776 0.608 2.325 1.198 0.303 0.328 0.643 2.573 0.765 3.121s0.335 1.64 0.335 1.64-1.084 0.48-1.922 0.497c-0.838 0.017-2.446-0.36-2.446-0.36s0.191-2.432 0.191-3.563c0-1.131 0.018-1.869 0.209-2.228 0.001 0.003 0.316-0.34 0.542-0.305z"></path>
<path fill="#22252a" style="fill: var(--color5, #22252a)" d="M16.896 14.381c0 0-0.153 0.111-0.684 0.492s-0.113 0.957-0.113 0.957c0 0-0.38 0.058-0.888 0.582s0.227 1.423 0.913 1.563c0.686 0.14 1.489-0.693 1.729-1.466s-0.077-1.938-0.237-2.179c-0.16-0.241-0.72 0.050-0.72 0.050z"></path>
<path fill="#22252a" style="fill: var(--color5, #22252a)" d="M18.909 14.279c0 0 0.264-0.401 0.025-0.982s-0.954-0.847-1.65-0.425c-0.232 0.135-0.412 0.342-0.512 0.588s-0.114 0.517-0.041 0.772c0.068 0.269 0.411 0.682 0.483 0.688s0.698 0.23 1.125 0.034c0.427-0.196 0.569-0.675 0.569-0.675z"></path>
<path fill="#737373" style="fill: var(--color6, #737373)" d="M15.835 27.809c0 0 0.496 0.757 1.358 0.887s0.087-0.629-0.059-0.744c-0.145-0.115-1.183-0.363-1.3-0.142z"></path>
<path fill="#737373" style="fill: var(--color6, #737373)" d="M20.427 28.004c0 0 0.948 0.229 0.875 0.43s-0.845 0.186-1.297 0.071-0.876-0.286-0.817-0.472c0.059-0.186 1.239-0.029 1.239-0.029z"></path>
<path fill="#8baa36" style="fill: var(--color1, #8baa36)" d="M17.733 15.785c0 0-1.269 0.182-1.5 0.622s0.095 2.835 0.095 2.835c0 0-0.541 1.172-0.549 1.926s0.335 2.082 0.308 2.413c-0.027 0.331-0.374 4.1-0.374 4.203s0.731 0.332 1.786 0.455c1.054 0.123 3.071-0.245 3.071-0.245s-0.040-2.224 0.066-3.551c0.105-1.326-0.045-2.519-0.314-3.014s-1.519-2.278-1.519-2.278 0.606-1.078 0.644-1.55c0.037-0.471-0.158-0.718-0.616-1.26-0.136-0.16-0.303-0.292-0.492-0.387s-0.395-0.154-0.606-0.17z"></path>
<path fill="#737373" style="fill: var(--color6, #737373)" d="M18.805 19.154c0 0 0.606-1.078 0.644-1.55s-0.158-0.718-0.615-1.26c-0.022-0.027-0.045-0.050-0.068-0.075l-0.017 0.015c-0.47 0.753-2.025 2.041-2.488 2.416 0.036 0.321 0.066 0.542 0.066 0.542s-0.541 1.172-0.549 1.926c0.009 0.344 0.044 0.686 0.104 1.025 1.098-0.615 2.567-1.766 3.363-2.408-0.249-0.361-0.44-0.632-0.44-0.632z"></path>
<path fill="#fafafa" style="fill: var(--color2, #fafafa)" d="M17.499 14.906c0.035 0.281 0.054 0.564 0.057 0.848-0.017 0.21 0.052 0.69 0.418 0.841s0.596-0.059 0.595-0.271c-0.013-0.174-0.048-0.347-0.105-0.513l0.010-0.579c0 0-0.631-0.387-0.976-0.326z"></path>
<path fill="#fafafa" style="fill: var(--color2, #fafafa)" d="M17.171 14.53c0 0-0.269-0.232-0.277 0.102s0.305 0.445 0.374 0.467c0.058 0.008 0.117-0.007 0.165-0.040 0 0 0.487 0.41 0.878 0.437s0.55-0.151 0.642-0.847c0.092-0.696-0.641-1.402-0.641-1.402s-0.627 1.134-1.141 1.282z"></path>
<path fill="#fafafa" style="fill: var(--color2, #fafafa)" d="M11.195 21.062c-0.004-0.119 0.016-0.237 0.059-0.349 0.065-0.139 0.418-0.219 0.496-0.246s0.118 0 0.095 0.073c-0.018 0.039-0.044 0.074-0.077 0.103s-0.071 0.051-0.112 0.065c-0.054 0.013-0.103 0.042-0.139 0.083-0.020 0.033-0.007 0.243-0.104 0.332s-0.25 0.065-0.217-0.061z"></path>
<path fill="none" stroke="#22252a" style="stroke: var(--color5, #22252a)" stroke-linejoin="round" stroke-linecap="round" stroke-miterlimit="4" stroke-width="0.5915" d="M19.202 17.98c0 0-1.254-0.161-1.807 0.698s-1.586 3.864-3.501 4.348c-1.915 0.484-2.463-3.383-3.612-3.275-1.095 0.102-1.86 0-2.517 1.181-0.351 0.632-2.107 7.538-2.936 7.609-2.643 0.227-4.344 0.079-4.344 0.079"></path>
<path fill="#22252a" style="fill: var(--color5, #22252a)" d="M7.822 15.166c0 0-0.289-0.114-0.676 0.113s-1.427 2.707-1.35 2.973c0.077 0.265 1.177 0.757 1.794 0.928s1.737 0.379 1.737 0.379c0 0 0.347 0.53 0.463 0.549 0.169-0.002 0.337-0.021 0.502-0.056 0 0 0.209 0.17 0.289-0.019s-0.077-0.435-0.251-0.624c-0.173-0.19-0.907-0.284-0.907-0.284l-1.988-1.345 0.836-1.514z"></path>
<path fill="#fafafa" style="fill: var(--color2, #fafafa)" d="M9.789 20.106c0.169-0.002 0.337-0.021 0.502-0.056 0 0 0.209 0.17 0.289-0.020s-0.077-0.435-0.251-0.624c-0.173-0.19-0.907-0.284-0.907-0.284l-1.988-1.344 0.297-0.542c-0.743-0.454-1.236-0.42-1.503-0.329-0.266 0.627-0.469 1.222-0.434 1.344 0.077 0.265 1.177 0.758 1.794 0.928s1.737 0.379 1.737 0.379c0 0 0.348 0.53 0.464 0.548z"></path>
<path fill="#22252a" style="fill: var(--color5, #22252a)" d="M22.217 18.022c-0.085-0.895-0.522-1.63-1.045-1.922l-0.017-0.182-1.365 0.124c-0.768 0.070-1.298 1.104-1.184 2.309s0.829 2.125 1.597 2.050l1.365-0.124-0.018-0.182c0.46-0.377 0.751-1.178 0.667-2.073z"></path>
<path fill="#fafafa" style="fill: var(--color2, #fafafa)" d="M22.835 17.969c-0.089-0.94-0.523-1.714-1.075-2.021l-0.019-0.192-0.584 0.053c-0.807 0.074-1.364 1.159-1.245 2.426s0.872 2.234 1.678 2.16l0.584-0.053-0.018-0.192c0.483-0.404 0.767-1.244 0.678-2.181z"></path>
<path fill="#fafafa" style="fill: var(--color2, #fafafa)" d="M23.42 17.912c0.12 1.267-0.437 2.353-1.244 2.426s-1.559-0.894-1.681-2.16c-0.122-1.266 0.437-2.358 1.243-2.426s1.561 0.894 1.682 2.16z"></path>
<path fill="#737373" style="fill: var(--color6, #737373)" d="M24.047 17.172l-2.266 0.205c-0.032 0.003-0.064-0-0.094-0.009s-0.059-0.024-0.083-0.044c-0.025-0.020-0.045-0.045-0.060-0.072s-0.024-0.058-0.027-0.089c-0.003-0.031 0-0.063 0.010-0.093s0.025-0.058 0.045-0.082c0.020-0.024 0.045-0.044 0.074-0.059s0.059-0.024 0.091-0.026l2.267-0.205c0.032-0.003 0.064 0 0.094 0.009s0.059 0.024 0.083 0.044c0.024 0.020 0.045 0.045 0.060 0.072s0.024 0.058 0.027 0.089c0.003 0.031-0 0.063-0.010 0.093s-0.025 0.058-0.045 0.082c-0.020 0.024-0.045 0.044-0.074 0.059s-0.059 0.024-0.091 0.026z"></path>
<path fill="#737373" style="fill: var(--color6, #737373)" d="M24.215 18.934l-2.266 0.205c-0.032 0.003-0.064-0-0.095-0.010s-0.059-0.024-0.083-0.044c-0.024-0.020-0.045-0.045-0.060-0.072s-0.024-0.058-0.027-0.089c-0.003-0.031 0-0.063 0.010-0.093s0.025-0.058 0.045-0.082c0.021-0.024 0.046-0.044 0.074-0.059s0.059-0.024 0.091-0.026l2.266-0.205c0.064-0.005 0.128 0.014 0.177 0.054s0.081 0.098 0.087 0.161c0.003 0.031-0 0.063-0.010 0.093s-0.025 0.058-0.045 0.082c-0.020 0.024-0.045 0.044-0.074 0.059s-0.059 0.024-0.091 0.026z"></path>
<path fill="#8baa36" style="fill: var(--color1, #8baa36)" d="M16.949 15.953c0 0-0.545 0.102-0.804 0.41s-0.788 2.68-0.666 2.953c0.122 0.273 2.081 0.615 2.686 0.664 0.486 0.019 0.974-0.002 1.457-0.063 0 0 0.523-0.013 0.666-0.037s0.407-0.162 0.411-0.214c0.004-0.052-0.022-0.177-0.217-0.193s-0.614-0.153-0.668-0.157c0.126-0.033 0.253-0.058 0.381-0.076 0 0 0.027-0.103-0.188-0.103s-0.411-0.014-0.492 0.103c-0.058 0.091-0.108 0.187-0.149 0.287 0 0-1.207 0.083-1.862-0.231s-0.862-0.418-0.862-0.418l0.47-1.845z"></path>
<path fill="#fafafa" style="fill: var(--color2, #fafafa)" d="M20.286 19.883c0.145-0.024 0.406-0.162 0.411-0.214s-0.022-0.177-0.217-0.193-0.614-0.153-0.668-0.157c0.126-0.032 0.253-0.058 0.381-0.076 0 0 0.027-0.103-0.188-0.103s-0.411-0.014-0.492 0.103c-0.058 0.091-0.108 0.187-0.148 0.287 0 0-1.207 0.083-1.862-0.231s-0.862-0.418-0.862-0.418l0.286-1.128c-0.373-0.15-0.766-0.246-1.167-0.284-0.195 0.773-0.355 1.683-0.282 1.845 0.121 0.273 2.081 0.615 2.686 0.664 0.486 0.019 0.974-0.002 1.457-0.064 0 0 0.523-0.009 0.666-0.033z"></path>
<path fill="#fafafa" style="fill: var(--color2, #fafafa)" d="M11.46 20.863c0 0-0.403 0.296-0.342 0.492s0.398-0.205 0.482-0.323c0.084-0.118 0.018-0.296-0.14-0.169z"></path>
<path fill="#fafafa" style="fill: var(--color2, #fafafa)" d="M11.539 21.129c0 0-0.402 0.296-0.342 0.492s0.399-0.205 0.482-0.323c0.083-0.118 0.018-0.298-0.14-0.169z"></path>
<path fill="#fafafa" style="fill: var(--color2, #fafafa)" d="M11.731 21.301c0 0-0.402 0.296-0.341 0.492s0.398-0.205 0.482-0.323c0.084-0.118 0.018-0.298-0.141-0.169z"></path>
<path fill="#fafafa" style="fill: var(--color2, #fafafa)" d="M11.888 21.441c0 0-0.348 0.219-0.289 0.381s0.346-0.145 0.418-0.239 0.014-0.246-0.129-0.142z"></path>
</symbol>
</defs>
</svg>
